PathFileType	4	(X/Y/Z)	D:\Long Term Storage\D'Arcy Smith\Coord8.trc
DataRate	CameraRate	NumFrames	NumMarkers	Units	OrigDataRate	OrigDataStartFrame	OrigNumFrames
120.00	120.00	      121	4	mm	120.00	4495	      5136
Frame#	Time	M1			M2			M3			M4			
		X1	Y1	Z1	X2	Y2	Z2	X3	Y3	Z3	X4	Y4	Z4	

4495	37.450	1046.85254	336.29587	592.22021	1641.51782	361.79010	552.08630							
4496	37.458	1050.62463	335.83038	588.39447	1642.55859	360.49979	543.03937							
4497	37.467	1051.76233	336.25748	584.81989	1643.67456	359.22833	532.97382							
4498	37.475	1055.69373	336.76370	581.07501	1644.69666	358.09232	521.96753							
4499	37.483	1056.63696	337.36713	576.82037	1644.96729	357.31964	510.66016							
4500	37.492	1059.93994	337.52011	571.45648	1646.45703	356.86362	497.63168							
4501	37.500	1062.46179	338.12732	565.93896	1645.80273	356.30692	484.46045							
4502	37.508	1067.07861	338.42197	559.23364	1645.44653	356.65451	471.24347							
4503	37.517	1067.89319	339.52451	553.24500	1645.48193	357.62338	457.21829							
4504	37.525	1072.39343	340.01199	546.01300	1643.52661	358.43561	443.04248							
4505	37.533	1073.50476	340.87964	538.47253	1642.16699	360.12140	428.95215							
4506	37.542	1074.02539	343.79593	537.37061	1640.85461	362.16434	413.73776							
4507	37.550	1078.53296	342.73486	522.23364	1639.41028	364.84799	399.19662							
4508	37.558	1081.56531	343.61151	513.46210	1637.64465	367.83722	384.97910							
4509	37.567	1082.07690	346.14810	509.57236	1635.59387	371.27573	371.03510							
4510	37.575	1088.85498	344.98663	489.00839	1633.32422	375.03790	357.42722							
4511	37.583	1093.47717	347.33383	477.17142	1631.24292	379.23151	344.25018							
4512	37.592	1093.37769	347.35901	466.76642	1628.93115	383.72876	331.51230							
4513	37.600	1096.26770	349.03070	454.96432	1626.32300	388.05496	319.48596							
4514	37.608	1099.41821	348.82422	443.52206	1623.38171	392.29382	308.05322							
4515	37.617	1098.44360	348.91254	435.36896	1620.60132	396.45932	297.41483							
4516	37.625	1101.69531	349.77939	423.57571	1617.83179	400.41879	287.68027							
4517	37.633	1103.49036	350.46280	412.04303	1615.15784	404.04990	278.95840							
4518	37.642	1105.00488	351.01721	399.87534	1612.54907	407.30493	271.42487							
4519	37.650	1103.44714	352.03979	393.65610	1610.13281	410.02924	264.98599							
4520	37.658	1104.36841	353.07336	383.37799	1607.95337	412.13681	259.66110							
4521	37.667	1105.46826	353.44742	372.67749	1606.11145	413.58417	255.65939							
4522	37.675	1105.77539	353.97821	363.46246	1604.61841	414.20782	252.84946							
4523	37.683	1106.38147	354.69858	354.40915	1602.92871	413.44717	251.93915							
4524	37.692	1107.71448	354.09213	341.93784	1602.16589	412.42477	251.96216							
4525	37.700	1108.65637	354.15714	333.97821	1602.55054	411.06921	252.95490							
4526	37.708	1108.13477	353.56406	327.11761	1602.45862	408.29755	256.04358							
4527	37.717	1105.53259	353.75153	323.49475	1602.89014	404.81570	260.54749							
4528	37.725	1104.44580	352.96259	320.03128	1603.71985	400.56299	266.46527							
4529	37.733	1102.42920	351.17188	319.28375	1604.81995	395.68716	273.86093							
4530	37.742	1100.89490	349.27780	317.68860	1606.23547	390.32108	282.51065							
4531	37.750	1098.64050	346.47128	318.41959	1607.97327	384.55640	292.45239							
4532	37.758	1094.88550	342.60965	322.41470	1610.04175	378.54434	303.68790							
4533	37.767	1091.78540	338.68423	326.94461	1612.41028	372.49915	316.04651							
4534	37.775	1087.61987	333.97662	334.28412	1614.99182	366.71759	329.70453							
4535	37.783	1083.15979	328.94092	342.74615	1617.69409	361.25867	344.38718							
4536	37.792	1078.78833	324.24744	352.78827	1620.47803	356.27237	359.89380							
4537	37.800	1073.86365	319.25461	364.07913	1623.38489	351.95450	375.88638							
4538	37.808	1068.94092	314.79874	376.46201	1626.51086	348.27560	392.11789							
4539	37.817	1063.16284	311.26349	389.83313	1629.22168	345.55502	408.24911							
4540	37.825	1057.66528	307.54929	404.28140	1632.02222	343.82214	424.08820							
4541	37.833	1052.96570	304.77689	419.20230	1634.60986	343.21222	440.03598							
4542	37.842	1047.84558	303.28043	433.94342	1636.70178	343.21887	455.03912							
4543	37.850	1042.34241	301.93848	448.45364	1638.45276	343.51752	467.27481							
4544	37.858	1037.29407	301.49240	463.70428	1639.88574	344.24356	478.43109							
4545	37.867	1033.43604	301.86911	478.78699	1640.66284	345.21445	487.70993							
4546	37.875	1028.64893	303.01837	492.96759	1641.48511	346.21664	494.44318							
4547	37.883	1024.28394	305.41486	507.68469	1641.70117	347.21652	499.69458							
4548	37.892	1020.55731	308.24237	520.75421	1641.65601	347.99432	502.91287							
4549	37.900	1017.01263	311.53772	534.32227	1641.42358	348.54916	504.15598							
4550	37.908	1013.30591	315.29163	545.88184	1641.03760	349.00375	503.49026							
4551	37.917	1010.73450	319.42139	556.12390	1640.11157	349.13297	501.04013							
4552	37.925	1008.39862	323.23502	565.13959	1639.18347	349.29282	497.06506							
4553	37.933	1006.45959	326.92307	572.79926	1638.05688	349.62042	491.73749							
4554	37.942	1004.41467	330.36603	579.13947	1636.67542	349.75272	485.84241							
4555	37.950	1003.46680	333.56018	584.47388	1635.76270	350.91187	478.57986							
4556	37.958	1002.91205	336.17474	588.42896	1634.50684	351.97113	470.55118							
4557	37.967	1002.62488	338.81512	591.71222	1633.08313	353.15851	461.94427							
4558	37.975	1002.99469	341.24200	593.51172	1631.93030	354.83096	453.07837							
4559	37.983	1003.32153	343.04999	594.29834	1630.74451	356.91525	444.02811							
4560	37.992	1004.76123	345.01425	593.88281	1629.58899	359.34924	434.87393							
4561	38.000	1006.31122	346.45947	592.25629	1628.67920	362.24597	426.22031							
4562	38.008	1008.73334	347.70844	589.28693	1627.97729	365.15576	415.69098							
4563	38.017	1011.22174	348.74701	584.84381	1627.49268	368.56519	406.39349							
4564	38.025	1014.24713	349.30939	579.33539	1627.31287	372.17462	397.04953							
4565	38.033	1017.24292	349.54123	572.07373	1627.31250	376.06390	387.64841							
4566	38.042	1020.92609	349.56839	563.87817	1627.17664	379.93878	378.28290							
4567	38.050	1025.15613	350.08118	554.36713	1627.15991	384.21826	368.77966							
4568	38.058	1028.98962	350.41644	544.10974	1627.14600	388.32159	359.52145							
4569	38.067	1033.58862	350.72397	533.00189	1627.35168	392.42029	350.51599							
4570	38.075	1038.10522	351.62485	520.86725	1627.53455	396.47144	341.75854							
4571	38.083	1043.96436	351.89047	507.64041	1627.52039	400.34885	333.45712							
4572	38.092	1048.56519	352.81265	494.62650	1627.90259	404.11237	325.63040							
4573	38.100	1053.06128	354.38275	481.30911	1628.17200	407.53308	318.27151							
4574	38.108	1058.69470	355.74979	467.07214	1628.68542	410.79495	311.48291							
4575	38.117	1063.85681	357.80753	452.87515	1629.05872	413.44345	305.47162							
4576	38.125	1069.17126	359.14691	439.02969	1629.40076	415.75784	300.07471							
4577	38.133	1074.34363	361.28156	425.16089	1629.91150	417.47372	295.38718							
4578	38.142	1079.44543	363.21164	411.66083	1630.27991	418.44312	291.39011							
4579	38.150	1084.40149	365.69250	398.54788	1630.84094	418.82913	288.34378							
4580	38.158	1091.27393	367.65927	383.17136	1631.34045	418.39639	286.13766							
4581	38.167	1092.84326	370.08755	373.46725	1631.93005	417.10092	284.98755							
4582	38.175	1096.30859	372.58139	362.79623	1632.50537	415.09320	285.04819							
4583	38.183	1099.77295	373.63055	355.22479	1633.13318	412.02405	286.41000							
4584	38.192	1103.46558	375.02521	344.90552	1633.80432	408.10791	289.18280							
4585	38.200	1107.82275	375.67191	332.10620	1634.33130	403.56393	293.18307							
4586	38.208	1109.68372	376.72781	326.31888	1634.55603	398.29050	298.70877							
4587	38.217	1110.40491	377.29739	322.84790	1635.21069	392.56903	305.42261							
4588	38.225	1113.10657	376.34232	313.77188	1635.47290	386.30402	313.40466							
4589	38.233	1113.84607	375.44101	311.70047	1635.73926	379.95529	322.59555							
4590	38.242	1114.06592	373.11060	309.49725	1635.84973	373.62463	333.05426							
4591	38.250	1112.99414	370.44208	309.84772	1636.11597	367.48535	344.56070							
4592	38.258	1112.18433	366.86096	310.73441	1636.17957	361.57147	357.15787							
4593	38.267	1109.44226	362.22528	315.37140	1636.32019	356.26401	370.85504							
4594	38.275	1107.25891	357.86523	317.85718	1636.53955	351.41998	385.51245							
4595	38.283	1103.24622	352.96411	324.69894	1636.56409	347.30045	401.05060							
4596	38.292	1100.16650	347.20761	330.88309	1636.72668	344.13629	417.24567							
4597	38.300	1096.04297	341.48804	339.89648	1637.09717	342.10718	434.64090							
4598	38.308	1091.68127	335.16107	349.32568	1637.11768	340.86487	451.72665							
4599	38.317	1086.52319	329.11389	359.85257	1637.45703	340.63129	468.60492							
4600	38.325	1081.47705	323.92462	371.22217	1637.75745	341.34888	485.24783							
4601	38.333	1076.19104	318.04398	383.15585	1637.72241	342.94788	500.31503							
4602	38.342	1071.63330	312.67322	395.69986	1637.94897	344.82339	515.47070							
4603	38.350	1066.23669	307.78818	408.92929	1637.83252	347.36636	529.49200							
4604	38.358	1060.56592	303.22675	422.43369	1638.09131	350.56985	542.55884							
4605	38.367	1055.36316	299.40076	436.30438	1638.01160	353.60727	553.76306							
4606	38.375	1050.74670	296.25311	450.64752	1637.56824	356.48804	563.28815							
4607	38.383	1045.87915	294.10287	465.11697	1637.09863	359.33151	570.78809							
4608	38.392	1041.04175	293.20770	479.78415	1636.19214	361.46881	576.23615							
4609	38.400	1036.02051	293.15012	494.26529	1634.67432	362.97058	579.51514							
4610	38.408	1031.81921	294.50543	508.57706	1633.11365	363.82596	580.50092							
4611	38.417	1027.59094	297.14709	522.56854	1631.64050	364.07959	579.24677							
4612	38.425	1023.25537	300.75424	535.82434	1629.87585	363.67978	575.69983							
4613	38.433	1019.88062	305.29764	548.80402	1628.30078	362.86838	570.07129							
4614	38.442	1016.70703	310.43024	560.84387	1625.84460	360.94843	562.20093							
4615	38.450	1013.37622	316.07309	571.63171	1623.41663	359.89337	552.52795							
